<svg xmlns="http://www.w3.org/2000/svg" viewBox="0 0 163.57 165.83"><defs><style>.cls-1{fill:#142644;stroke:#142644;stroke-width:1.69px;}.cls-1,.cls-2{stroke-miterlimit:10;}.cls-2{fill:#e3ff66;stroke:#e3ff66;stroke-width:4.51px;}</style></defs><g id="Layer_2" data-name="Layer 2"><g id="Layer_1-2" data-name="Layer 1"><path class="cls-1" d="M85.68,161.72c-8.5,1.58-12.89,1-25.53-2.3-31-9.52-50.51-30.18-57.52-61.81C-6,58.74,17.39,18.1,55,5.37c42.09-14.25,86.22,6.17,102.35,47.47a79.15,79.15,0,0,1,3.81,44.32c-.51,2.68-2.18,4-4.34,3.68-2.31-.4-3.35-2.22-2.94-5,.49-3.39.94-6.79,1.44-10.48h-28c-3.82,0-5-1.1-5-4.87a129,129,0,0,0-3.2-27.26c-.06-.26-.15-.51-.26-.84H85.64V77.91c2.53,0,5,0,7.57,0a6.26,6.26,0,0,1,2.6.47,3.33,3.33,0,0,1,1.89,3.95,3.47,3.47,0,0,1-3.52,2.93c-2.21.1-4.42,0-6.63,0h-2V111c1.81,0,3.57,0,5.33,0,2.52,0,4.13,1.47,4.16,3.63s-1.57,3.68-4.06,3.76c-1.72,0-3.44,0-5.32,0v41ZM41.58,77.78H78V52.22c-10.83,0-21.51,0-32.19.05a1.61,1.61,0,0,0-1.18,1A112.93,112.93,0,0,0,41.58,77.78ZM78,111V85.45H41.58a112.18,112.18,0,0,0,3,24.47A1.8,1.8,0,0,0,46,111C56.59,111,67.2,111,78,111Zm0-66.25V8.64C63.84,10.38,51.25,28.79,47.23,44.75Zm.06,73.79H46.91c.8,2.19,1.46,4.21,2.26,6.17C53,134,57.82,142.59,65.82,149a24.61,24.61,0,0,0,12.23,5.65Zm38.68-73.8a78.16,78.16,0,0,0-9.86-20.67c-3.69-5.34-8.05-10-13.9-13a75.56,75.56,0,0,0-7.28-2.84V44.74ZM37,52.22c-7.24,0-14.41,0-21.57.06A2.16,2.16,0,0,0,14,53.57c-1.47,4.65-3,9.29-4.16,14-.79,3.29-1,6.72-1.46,10.19H34c.35-4.28.59-8.46,1.09-12.62S36.33,56.74,37,52.22Zm-.25,58.68c-1-8.52-2-17-3-25.48H8.54a71.94,71.94,0,0,0,5.93,25.48ZM155.14,77.79a71.3,71.3,0,0,0-5.64-24.62,2.22,2.22,0,0,0-1.73-.91c-6.68-.06-13.37,0-20.06,0a4.13,4.13,0,0,0-.82.12c1,8.54,2.06,16.92,3.1,25.44ZM55.84,13.16C39.77,19.27,27.34,29.73,18.3,44.81c6.84,0,13.25,0,19.65-.07.57,0,1.42-.9,1.63-1.54C43.14,32.2,48.08,22,55.84,13.16ZM18.34,118.52c9.06,15,21.42,25.46,37.53,31.54-8.15-9.18-13.17-20-16.73-31.54ZM145.16,44.81c-6-12.62-25.21-28.8-37.31-31.64,2,2.64,4.09,5.24,6,8a86.82,86.82,0,0,1,10.26,22c.2.62.94,1.52,1.44,1.53C132,44.85,138.46,44.81,145.16,44.81Z"/><path class="cls-2" d="M144.84,138c2.14,3.07,4.15,5.91,6.13,8.78,3.09,4.46,2.27,9.22-2.13,12.39-1.35,1-2.71,1.94-4.1,2.85a8.2,8.2,0,0,1-11.6-2.05c-2.18-3-4.26-6-6.49-9.22-1.77,1.91-3.44,3.8-5.22,5.59a5.12,5.12,0,0,1-5.6,1.31,5.18,5.18,0,0,1-3.71-4.4c-.24-1.65-.39-3.3-.56-5q-1.69-17.09-3.39-34.15c-.24-2.36.29-4.37,2.27-5.78a5.58,5.58,0,0,1,6-.32l35,16.79a5.47,5.47,0,0,1,3.52,5.39c-.07,2.6-1.52,4.21-3.84,5.16Zm4.64-8-35.81-17.19c1.3,13.23,2.58,26.19,3.86,39.14l.48.35a8,8,0,0,1,.81-1.29c1.8-2,3.63-4,5.47-6,2-2.21,3.69-2.1,5.43.38l7.52,10.74c1.5,2.12,2.81,2.34,5,.84l3.2-2.24c2.14-1.52,2.38-2.83.87-5-2.49-3.58-5-7.15-7.51-10.74-1.73-2.47-1.26-4,1.54-5.21Z"/></g></g></svg>