<svg xmlns="http://www.w3.org/2000/svg" viewBox="0 0 185.1 166.82"><defs><style>.cls-1{fill:none;stroke:#132644;stroke-miterlimit:10;stroke-width:11.29px;}</style></defs><g id="Layer_2" data-name="Layer 2"><g id="Layer_1-2" data-name="Layer 1"><path class="cls-1" d="M176,55.17a34.31,34.31,0,0,0-15.73-45.9h0A34.32,34.32,0,0,0,114.31,25L96,53.82a4.13,4.13,0,0,1-3.64,1.92h0A4.12,4.12,0,0,1,89,53.82l-18.4-29C59.56,8,41.7.78,24.68,9.11h0A34.2,34.2,0,0,0,8.08,26.76C3.52,37.74,5.56,50.38,12.57,60L82.4,155.65a13.48,13.48,0,0,0,21.85-.11l42.66-59.72"/></g></g></svg>