<svg xmlns="http://www.w3.org/2000/svg" viewBox="0 0 175.69 175.62"><defs><style>.cls-1,.cls-2,.cls-3{fill:none;stroke-miterlimit:10;stroke-width:11.29px;}.cls-1{stroke:#142644;}.cls-2{stroke:#e3ff65;}.cls-3{stroke:#e3ff66;}</style></defs><g id="Layer_2" data-name="Layer 2"><g id="Layer_1-2" data-name="Layer 1"><path class="cls-1" d="M59.1,125.57Q39.28,105.8,19.56,85.93a48.61,48.61,0,0,1-.37-67.71c3.3-3.42,6.69-6.76,10.08-10.08s7.83-3.35,11.18,0Q52.14,19.65,63.68,31.32c2.86,2.9,2.82,6.71,0,9.66-2,2.09-4.08,4.07-6.1,6.13a29.54,29.54,0,0,0-1.27,40.54A316.42,316.42,0,0,0,88,119.25a29.57,29.57,0,0,0,40.26-.93c2.14-2,4.16-4.19,6.28-6.25,3.11-3,6.9-3,10,0q11.6,11.49,23.08,23.07c3.07,3.1,3.41,7.54.55,10.52A180,180,0,0,1,154,159.31c-8.73,7.25-19,10.51-30.73,10.67-12.73-.31-24.21-4.68-33.54-13.93"/><path class="cls-2" d="M84.76,37.28a19.7,19.7,0,0,1,27.83,1.36h0a19.7,19.7,0,0,1-1.36,27.83"/><path class="cls-3" d="M99.87,14.9a24.38,24.38,0,0,1,34.42,1.68h0A24.37,24.37,0,0,1,132.61,51"/></g></g></svg>