<svg xmlns="http://www.w3.org/2000/svg" viewBox="0 0 174.04 173.82"><defs><style>.cls-1,.cls-2{fill:none;stroke-miterlimit:10;stroke-width:11.29px;}.cls-1{stroke:#e3ff66;}.cls-2{stroke:#142644;}</style></defs><g id="Layer_2" data-name="Layer 2"><g id="Layer_1-2" data-name="Layer 1"><path class="cls-1" d="M115,86.91c0,15.92-12.53,28.82-28,28.82s-28-12.9-28-28.82S71.57,58.09,87,58.09"/><path class="cls-2" d="M60.93,143.86a14.61,14.61,0,0,0-14.72,4.51c-1.18,1.25-2.38,2.47-3.59,3.69-1.75,1.74-3.63,1.78-5.38.05q-7.8-7.77-15.57-15.58a3.45,3.45,0,0,1,0-5.31,73,73,0,0,0,5.43-5.56,14.8,14.8,0,0,0-7.6-23.48,31.12,31.12,0,0,0-6.28-.65c-1.34-.1-2.7,0-4.05,0-2.28-.08-3.53-1.31-3.54-3.58q0-11.07,0-22.13c0-2.39,1.27-3.58,3.69-3.64,2.74-.07,5.49,0,8.21-.24a14.91,14.91,0,0,0,8-25.74C24.27,44.9,23,43.67,21.7,42.41c-1.79-1.79-1.79-3.55,0-5.34q7.69-7.72,15.42-15.42c1.74-1.74,3.62-1.74,5.38,0q2.16,2.1,4.28,4.24c7.68,7.77,21,4.7,24.57-5.28a20.84,20.84,0,0,0,.93-5.35c.16-1.93,0-3.87,0-5.81,0-2.55,1.23-3.76,3.76-3.77,3.65,0,7.3,0,11,0s7.23,0,10.84,0c2.52,0,3.72,1.23,3.79,3.77.07,2.73,0,5.49.26,8.2.58,5.69,5.65,11,11.27,12.15a15,15,0,0,0,14.63-4.58c1.19-1.23,2.38-2.47,3.6-3.69a3.36,3.36,0,0,1,5.2-.06q7.86,7.8,15.65,15.65c1.69,1.7,1.64,3.68-.09,5.39-1.35,1.34-2.72,2.65-4.08,4a15,15,0,0,0,5.57,24.81,22.78,22.78,0,0,0,5.49.84c1.81.14,3.65,0,5.47,0,2.35,0,3.65,1.24,3.67,3.55q.1,11.13.09,22.25a3.29,3.29,0,0,1-3.5,3.53c-2.15.07-4.31,0-6.46,0a14.85,14.85,0,0,0-14.25,10.77,14.62,14.62,0,0,0,3.86,14.82c1.37,1.42,2.83,2.74,4.23,4.14,1.73,1.72,1.77,3.53.05,5.26q-7.72,7.78-15.5,15.5c-1.73,1.73-3.62,1.7-5.38,0-1.44-1.4-2.85-2.84-4.29-4.23a15,15,0,0,0-24.61,5.7,18.86,18.86,0,0,0-.84,5c-.14,2,0,3.94,0,5.92,0,2.45-1.28,3.74-3.72,3.75q-10.95,0-21.91,0"/></g></g></svg>