<svg xmlns="http://www.w3.org/2000/svg" viewBox="0 0 161.32 194.14"><defs><style>.cls-1,.cls-2{fill:none;stroke-miterlimit:10;}.cls-1{stroke:#e3ff66;stroke-width:11.29px;}.cls-2{stroke:#142644;stroke-width:10.48px;}</style></defs><g id="Layer_2" data-name="Layer 2"><g id="Layer_1-2" data-name="Layer 1"><path class="cls-1" d="M96.14,172.49a16,16,0,0,1-16,16h0a16,16,0,0,1-16-16"/><path class="cls-1" d="M63.72,37.65v-16a16,16,0,0,1,16-16h0a16,16,0,0,1,16,16v16"/><path class="cls-2" d="M9.21,164.19c-4.1-4.1-4.44-8.42-3.61-11.9.94-3.91,4.41-6.12,8.09-7.74,10-4.45,9.29-18,9.29-18V88.78a54.52,54.52,0,0,1,16.53-40Q56,32.22,79.69,32.22a54.52,54.52,0,0,1,40,16.53,54.55,54.55,0,0,1,16.53,40V127s-.25,14.54,11.4,18c3.85,1.14,7.14,3.84,8.08,7.74.83,3.48.49,7.8-3.61,11.9l-109.47-.26"/></g></g></svg>