<svg xmlns="http://www.w3.org/2000/svg" width="24" height="24" viewBox="0 0 24 24">
  <g id="collapsed" transform="translate(-955 -207)">
    <circle id="Ellipse_131" data-name="Ellipse 131" cx="12" cy="12" r="12" transform="translate(955 207)" fill="#142644"/>
    <path id="back" d="M634.083,756.755a.637.637,0,0,1-.153.423l-4.513,5.2a1.722,1.722,0,0,1-2.671,0l-4.513-5.2a.667.667,0,0,1,0-.845.474.474,0,0,1,.733,0l4.513,5.2a.775.775,0,0,0,1.2,0l4.513-5.2a.474.474,0,0,1,.733,0A.675.675,0,0,1,634.083,756.755Z" transform="translate(339.132 -539.944)" fill="#e3ff66"/>
  </g>
</svg>
