<svg id="bg" xmlns="http://www.w3.org/2000/svg" width="360" height="640" viewBox="0 0 360 640">
  <rect id="bg-2" data-name="bg" width="360" height="640" fill="#5e85ed"/>
  <g id="thanks_illustration" data-name="thanks illustration" transform="translate(0 507.129)" opacity="0.5">
    <path id="Path_1981" data-name="Path 1981" d="M0,111.971c0-19.593,0-39.185.042-58.89A10.094,10.094,0,0,0,.269,51.7,52.609,52.609,0,0,1,1.35,43.669a51.753,51.753,0,0,1,7.525-18.1,59.777,59.777,0,0,1,11.1-12.5A53.164,53.164,0,0,1,52.614.1,60.991,60.991,0,0,1,64.946.632,53.412,53.412,0,0,1,78.053,4.28c1.068.457,2.124.941,3.218,1.451.61.353,1.189.665,1.765.982a54.165,54.165,0,0,1,10.546,7.624,63.087,63.087,0,0,1,5.773,6.02,55.512,55.512,0,0,1,6.337,9.33,52.33,52.33,0,0,1,4.976,13.469,56.806,56.806,0,0,1,1.212,8.617c.12,1.84.145,3.689.145,5.534,0,3.54-.052,7.081-.074,10.62-.029,4.706-.046,9.411-.08,14.117,0,.644-.077,1.288-.121,1.983h-1.061q-14.23,0-28.461,0c-.328,0-.657.02-1.055.02-.745-.011-1.42-.011-2.1-.011,0-.881-.006-1.658,0-2.436.05-5.337.112-10.674.15-16.011.022-3.111.027-6.224,0-9.335a26.826,26.826,0,0,0-.487-5.2A22.67,22.67,0,0,0,70.26,37.695a21.62,21.62,0,0,0-11.555-4.724A23.975,23.975,0,0,0,48.6,34.01a23.024,23.024,0,0,0-9.745,6.481,21.935,21.935,0,0,0-5.052,8.884,23.942,23.942,0,0,0-.878,6.665q.014,27.437.005,54.874v1.048h-.979q-8.007,0-16.014,0Q7.969,111.964,0,111.971Z" transform="translate(0 14.37)" fill="#5bc657"/>
    <path id="Path_1982" data-name="Path 1982" d="M9.9,77.895a55.943,55.943,0,0,1-5.379-9.48A53.473,53.473,0,0,1,.458,53.477,61.561,61.561,0,0,1,0,45.529Q.088,31.943.166,18.357c0-.173,0-.347,0-.572h32.8c0,.293,0,.588,0,.883q-.08,13.624-.161,27.248a20.922,20.922,0,0,0,2.335,10.171c3.438,6.415,8.579,10.833,15.793,12.3a22.5,22.5,0,0,0,21.709-6.6,21.566,21.566,0,0,0,6.133-12.106,28.641,28.641,0,0,0,.293-4.233q.031-22.2.013-44.4c0-.3.006-.607.035-.978C90.031,0,100.916,0,111.873,0a5.131,5.131,0,0,1,.019.9q0,22.09,0,44.181a62.033,62.033,0,0,1-1.356,13.56,52.348,52.348,0,0,1-10.472,21.731,58.093,58.093,0,0,1-18.137,15.2,52.5,52.5,0,0,1-16.475,5.436,61.57,61.57,0,0,1-14.525.553A53.075,53.075,0,0,1,18.452,87.424,17.745,17.745,0,0,1,17.3,86.017a32.338,32.338,0,0,0-5.906-6.753c-.509-.442-.995-.912-1.49-1.369m72.515-7.3c-.822-.63-1.774-.355-2.746-.485-.079,1.545-.153,2.992-.229,4.487.537.036.987.073,1.438.095a3.808,3.808,0,0,0,.68-.015c.872-.116,1.385-.669,1.214-1.406a3.585,3.585,0,0,0-.57-.944c.639-.628.681-.84.213-1.733m13.14,1.41c-.014.211-.028.422-.046.68-.212-.11-.338-.188-.474-.245a1.39,1.39,0,0,0-1.606.283,1.768,1.768,0,0,0-.327,1.9,1.3,1.3,0,0,0,1.452.845,2.354,2.354,0,0,1,1.354.021c.055.021.138-.027.248-.052.082-1.538.163-3.071.248-4.659h-.771c-.026.4-.05.746-.078,1.225m-8.052,1.575c-.487.723-.291,1.368.492,1.553a1.264,1.264,0,0,0,.67,0,.878.878,0,0,1,.837.021c.1.062.284-.009.468-.022.034-.607.088-1.185.094-1.764A1.213,1.213,0,0,0,88.651,72a3.936,3.936,0,0,0-1,.3c-.053.019-.08.116-.132.2l.34.368c.916-.392,1.172-.338,1.4.238-.55.133-1.105.267-1.754.471m-2.619,1.408a4.009,4.009,0,0,0,.671-.08,1.589,1.589,0,0,0,1.135-1.815,1.616,1.616,0,0,0-1.862-1.286A1.534,1.534,0,0,0,83.4,73.384c0,.789.414,1.268,1.483,1.6m6.784-.288c.015-.2.017-.4.046-.6a2.164,2.164,0,0,1,.191-.936c.182-.244.563-.341.907-.53-.012-.112-.03-.275-.059-.531-.336.118-.645.34-.877.277-.264-.072-.481-.31-.853-.13-.053.94-.108,1.91-.163,2.87C91.513,75.268,91.513,75.268,91.671,74.7Z" transform="translate(248.097 0)" fill="#152644"/>
    <path id="Path_1984" data-name="Path 1984" d="M0,132.871a3.149,3.149,0,0,1,.413-.84,21.529,21.529,0,0,0,3.625-8.917,25.277,25.277,0,0,0,.313-4.152q0-59.182,0-118.363c0-.152,0-.3-.009-.526C15.219,0,26.1,0,37.061,0a3.633,3.633,0,0,1,.089.91q0,58.816.007,117.633a60.1,60.1,0,0,1-.507,8.546c-.271,1.9-.68,3.774-1.032,5.721-11.852.061-23.7.061-35.618.061M9.684,10.987l-.349.123a.75.75,0,0,1-.926-.266.773.773,0,0,1,.03-.917.675.675,0,0,1,.869-.241,3.992,3.992,0,0,0,.55.163c-.6-.665-1.143-.708-1.645-.212a.984.984,0,0,0-.265,1.043,1.058,1.058,0,0,0,.894.822c.382.052.77.041.841-.515m3.436.5a2.222,2.222,0,0,0,.579-.094.719.719,0,0,0,.383-.947.81.81,0,0,0-.976-.5.757.757,0,0,0-.541.94c.074.213.292.377.554.605m-2.2.025a1.162,1.162,0,0,0,.282-.1.776.776,0,0,0,.363-.966.785.785,0,0,0-.749-.537.816.816,0,0,0-.774.609.76.76,0,0,0,.473.912,1.2,1.2,0,0,0,.4.081m5.355-.52c-.15.508-.6-.107-.834.255a.777.777,0,0,0,.87.224.589.589,0,0,0,.306-.369.454.454,0,0,0-.177-.372,4.093,4.093,0,0,0-.642-.314c0-.042.007-.083.011-.125l.836-.074c-.326-.312-.6-.411-.893-.248a.576.576,0,0,0-.3.369c0,.128.15.3.279.385s.323.119.544.267m-1.338-.665.383-.346h-.9c.034.523-.179,1.029.278,1.648a7.263,7.263,0,0,1,.241-1.3M11.926,9.6a4.48,4.48,0,0,0,.2,1.843,6.775,6.775,0,0,0,.079-1.965A.368.368,0,0,0,11.926,9.6Z" transform="translate(153.746 0)" fill="#e3ff66"/>
    <path id="Path_1987" data-name="Path 1987" d="M1.563,23.741a8.277,8.277,0,0,1-.16-.891A56.062,56.062,0,0,1,.268,15.383C-.148,10.5.058,5.6.01.705c0-.2.03-.392.054-.69.7,0,1.378,0,2.121-.015.348,0,.625.024.9.024q14.35,0,28.7,0h.974c.017.337.041.6.041.872,0,3.011-.028,6.024.014,9.035a24.605,24.605,0,0,0,.7,5.78,21.779,21.779,0,0,0,3.412,7.394,2.188,2.188,0,0,1,.267.579C25.329,23.741,13.482,23.741,1.563,23.741Z" transform="translate(78.99 109.13)" fill="#5e85ee"/>
    <path id="Path_1988" data-name="Path 1988" d="M47.1,5.669c.528.433,1.013.9,1.523,1.345a32.342,32.342,0,0,1,5.905,6.753c.313.478.728.889,1.112,1.38-.326.256-.02.452.051.618.524,1.231,1.127,2.432,1.594,3.683a25.332,25.332,0,0,1,1.4,5.953,32.016,32.016,0,0,1,.27,4.836,29.846,29.846,0,0,1-2.4,11.106,29.466,29.466,0,0,1-4.92,7.6,29.623,29.623,0,0,1-10.051,7.541,28.1,28.1,0,0,1-7.615,2.188,32.434,32.434,0,0,1-6.5.248,28.3,28.3,0,0,1-9.545-2.185A29.694,29.694,0,0,1,7.156,48.789,27.871,27.871,0,0,1,.482,35.06,32.993,32.993,0,0,1,.1,26.83a27.522,27.522,0,0,1,3.558-11.8A30.181,30.181,0,0,1,7.29,10,31.32,31.32,0,0,1,13.508,4.6,27.087,27.087,0,0,1,20.916,1.19,30.923,30.923,0,0,1,31.486.062,27.818,27.818,0,0,1,46.927,5.649a.24.24,0,0,0,.17.021M37.617,20.4c-.14-.108-.284-.212-.419-.325a11.877,11.877,0,0,0-10.524-2.449,11.5,11.5,0,0,0-6.224,3.685,11.8,11.8,0,0,0-2.8,11.185,11.394,11.394,0,0,0,3.412,5.795,11.894,11.894,0,0,0,11.267,3.076,11.33,11.33,0,0,0,6.379-3.971A12.13,12.13,0,0,0,37.617,20.4Z" transform="translate(210.869 72.249)" fill="#9bacbe"/>
    <path id="Path_1994" data-name="Path 1994" d="M24.481,36.32a18.541,18.541,0,0,1-12.621-.355A18.128,18.128,0,0,1,.343,22.051,18.45,18.45,0,0,1,12.355,1.1C24.2-2.858,33.993,4.488,36.44,13.325a18.559,18.559,0,0,1-11.958,23M12.253,14.293a7.691,7.691,0,1,0,4.759-3.186A7.843,7.843,0,0,0,12.253,14.293Z" transform="translate(115.763 91.483)" fill="#162744"/>
    <path id="Path_2002" data-name="Path 2002" d="M.581,0a3.42,3.42,0,0,1,.59.065.589.589,0,0,1,.489.587.594.594,0,0,1-.512.649A8.046,8.046,0,0,1,0,1.313V.054C.188.033.351.015.581,0Z" transform="translate(328.447 72.714)" fill="#203441"/>
    <path id="Path_2003" data-name="Path 2003" d="M.9.016c.543.262.652.426.56.782-.1.386-.4.485-.746.491-.221,0-.442-.026-.71-.044V0C.31,0,.573,0,.9.016Z" transform="translate(328.528 70.816)" fill="#283a41"/>
    <path id="Path_2004" data-name="Path 2004" d="M1.317.137a1.014,1.014,0,0,1,.322,1.319.821.821,0,0,1-.854.494.787.787,0,0,1-.709-.582A1.016,1.016,0,0,1,.256.307.766.766,0,0,1,1.317.137Z" transform="translate(341.83 72.93)" fill="#213241"/>
    <path id="Path_2005" data-name="Path 2005" d="M.975,0c.145.1.312.2.3.283a.663.663,0,0,1-.727.6C.283.887-.007.831,0,.525,0,.372.235.187.405.086A1.523,1.523,0,0,1,.975,0Z" transform="translate(336.1 73.683)" fill="#2e3d40"/>
    <path id="Path_2006" data-name="Path 2006" d="M1.113,1.923C.264,1.876-.129,1.41.038.731A.861.861,0,0,1,1.03.01.9.9,0,0,1,1.761,1,1.009,1.009,0,0,1,1.113,1.923Z" transform="translate(332.267 72.415)" fill="#223341"/>
    <path id="Path_2007" data-name="Path 2007" d="M1.359,3.313A7.815,7.815,0,0,1,6.088.172a7.7,7.7,0,0,1,9.279,7.774A7.755,7.755,0,0,1,7.3,15.375,7.715,7.715,0,0,1,1.359,3.313Z" transform="translate(126.687 102.417)" fill="#d2feb2"/>
    <path id="Path_2008" data-name="Path 2008" d="M.87.678C.738.979.527,1.087.3.95A.716.716,0,0,1,0,.483.575.575,0,0,1,.267.075C.564-.123.771.069.87.678Z" transform="translate(166.621 10.206)" fill="#5b80e1"/>
    <path id="Path_2009" data-name="Path 2009" d="M.336.948A1.091,1.091,0,0,1,.015.513.392.392,0,0,1,.338,0,.624.624,0,0,1,.788.17a.388.388,0,0,1,0,.6A1.022,1.022,0,0,1,.336.948Z" transform="translate(164.127 10.248)" fill="#5c80e3"/>
    <rect id="Rectangle_9" data-name="Rectangle 9" width="21.19" height="10.595" transform="translate(324.704 68.633)" fill="#152644"/>
    <rect id="Rectangle_10" data-name="Rectangle 10" width="10.128" height="3.584" transform="translate(160.95 8.647)" fill="#e3ff66"/>
  </g>
  <g id="done" transform="translate(-639 -75)">
    <g id="Rectangle_14" data-name="Rectangle 14" transform="translate(771 171)" fill="none" stroke="#fff" stroke-width="5">
      <rect width="96" height="96" rx="35" stroke="none"/>
      <rect x="2.5" y="2.5" width="91" height="91" rx="32.5" fill="none"/>
    </g>
    <path id="Path_2096" data-name="Path 2096" d="M73.177,30.945a4.365,4.365,0,0,1,0,6.171L46.025,64.268a4.364,4.364,0,0,1-6.171,0L26.278,50.691a4.364,4.364,0,0,1,6.171-6.171l10.49,10.49L67.005,30.945A4.364,4.364,0,0,1,73.177,30.945Z" transform="translate(769.273 171.394)" fill="#e3ff66" fill-rule="evenodd"/>
  </g>
</svg>
