<svg xmlns="http://www.w3.org/2000/svg" width="72" height="24" viewBox="0 0 72 24">
  <g id="logo" transform="translate(-114.006 -523.335)">
    <path id="Path_1585" data-name="Path 1585" d="M550.418,561.767c0-2.908.005-5.755,0-8.6a4.152,4.152,0,0,0-2.552-4.074A4.205,4.205,0,0,0,542,553.067c-.012,3.032,0,6.064,0,9.1v.949h-5.826a3.062,3.062,0,0,1-.049-.4c0-3.342-.011-6.684,0-10.025a10.108,10.108,0,0,1,19.635-3.177,9.036,9.036,0,0,1,.557,2.889c.068,3.464.03,6.93.031,10.4,0,.1-.013.2-.021.318h-5.909C550.418,562.679,550.418,562.254,550.418,561.767Z" transform="translate(-370.351 -17.057)" fill="#182744"/>
    <path id="Path_1586" data-name="Path 1586" d="M250.385,528.493c0-1.749,0-3.436,0-5.158h5.775v3.576H259.7v6h-3.525c0,1.252-.047,2.443.01,3.629a10.743,10.743,0,0,1-1.988,6.8,9.124,9.124,0,0,1-5.128,3.6A10.2,10.2,0,0,1,237,541.479a10.864,10.864,0,0,1-.929-5.171c.009-.306,0-.613,0-.964h5.95c0,.6-.006,1.188,0,1.78a4.183,4.183,0,1,0,8.364-.032C250.39,534.247,250.387,531.4,250.385,528.493Z" transform="translate(-107.088 0)" fill="#192745"/>
    <path id="Path_1587" data-name="Path 1587" d="M195.774,545.709c2.1,2.434,2.6,5.284,2.329,8.4h-5.881c0-.647.023-1.281,0-1.914a4.219,4.219,0,0,0-3.246-3.983,4.105,4.105,0,0,0-4.691,2.284,5.491,5.491,0,0,0-.424,2.146c-.044,3.258-.019,6.517-.019,9.823h-5.914c0-1.239,0-2.47,0-3.7,0-2.207-.036-4.415.007-6.621a10.087,10.087,0,0,1,15.119-8.658A18.751,18.751,0,0,1,195.774,545.709Z" transform="translate(-56.068 -16.421)" fill="#192745"/>
    <path id="Path_1590" data-name="Path 1590" d="M440.221,549.291a9.521,9.521,0,0,1,6.953-7.008,37.648,37.648,0,0,1,3.841-.649c0,2.127,0,4.076,0,6.026a19.788,19.788,0,0,0-2.086.334,3.913,3.913,0,0,0-3.088,4.107q0,4.642,0,9.284c0,.223,0,.445,0,.7h-5.886c-.011-.145-.034-.3-.034-.459,0-3.177-.023-6.355.01-9.532A27.687,27.687,0,0,1,440.221,549.291Z" transform="translate(-285.943 -16.033)" fill="#182744"/>
    <path id="Path_1591" data-name="Path 1591" d="M126.045,568.41v3.317h-5.908V555.421h3.142v-2.778h2.766C126.045,557.89,126.045,563.119,126.045,568.41Z" transform="translate(-5.379 -25.679)" fill="#182744"/>
    <path id="Path_1600" data-name="Path 1600" d="M114.054,542.463c.935-.049,1.826-.092,2.717-.078a.568.568,0,0,1,.381.4,20.615,20.615,0,0,1-.008,2.339.679.679,0,0,1-.458.476c-.706.03-1.417-.052-2.125-.043-.429.005-.568-.144-.554-.573C114.034,544.155,114.013,543.321,114.054,542.463Z" transform="translate(0 -16.689)" fill="#e0f166"/>
  </g>
</svg>
