<svg xmlns="http://www.w3.org/2000/svg" viewBox="0 0 75.07 69.56"><defs><style>.cls-1{fill:#e3ff66;}.cls-2,.cls-5{fill:none;stroke:#142644;stroke-miterlimit:10;}.cls-2{stroke-width:5px;}.cls-3{fill:#132644;}.cls-4{fill:#142644;}.cls-5{stroke-width:3.88px;}</style></defs><g id="Layer_2" data-name="Layer 2"><g id="Layer_1-2" data-name="Layer 1"><path class="cls-1" d="M11.46,62.93v-57A5.89,5.89,0,0,1,17.35,0H69.18a5.89,5.89,0,0,1,5.89,5.89V57.67a5.18,5.18,0,0,1-5.17,5.18h-42"/><path class="cls-2" d="M2.5,64.14V13.41A5.54,5.54,0,0,1,8.05,7.86H56.87a5.54,5.54,0,0,1,5.55,5.55V62.19a4.87,4.87,0,0,1-4.87,4.87H18"/><path class="cls-3" d="M16.91,24.48V21.11a4.42,4.42,0,0,0-4.42-4.42h0a4.42,4.42,0,0,0-4.42,4.42v3.37Z"/><rect class="cls-4" x="8.35" y="27.86" width="23.76" height="3.54" rx="1.77"/><rect class="cls-4" x="18.25" y="21.42" width="37.96" height="3.54" rx="1.77"/><rect class="cls-4" x="8.11" y="33.94" width="37.96" height="3.54" rx="1.77"/><path class="cls-5" d="M45.93,62.81V55c0-5.28-5.83-9.56-13-9.56h0c-7.19,0-13,4.28-13,9.56"/></g></g></svg>