<svg xmlns="http://www.w3.org/2000/svg" viewBox="0 0 94.34 102.7"><defs><style>.cls-1{fill:#e3ff66;}.cls-2,.cls-3,.cls-5{fill:none;stroke-miterlimit:10;}.cls-2,.cls-3{stroke:#142644;}.cls-2{stroke-width:5px;}.cls-3{stroke-width:4.1px;}.cls-4{fill:#142644;}.cls-5{stroke:#132644;stroke-width:4.37px;}.cls-6{fill:#132644;}</style></defs><g id="Layer_2" data-name="Layer 2"><g id="Layer_1-2" data-name="Layer 1"><ellipse class="cls-1" cx="35.19" cy="44.09" rx="23.57" ry="22.88"/><path class="cls-2" d="M2.5,58.78V8.05A5.54,5.54,0,0,1,8.05,2.5H56.87a5.54,5.54,0,0,1,5.55,5.55V56.83a4.87,4.87,0,0,1-4.87,4.87H18"/><line class="cls-3" x1="3.57" y1="16.5" x2="60.94" y2="16.5"/><ellipse class="cls-4" cx="10.28" cy="9.57" rx="3.77" ry="3.65"/><ellipse class="cls-4" cx="18.85" cy="9.56" rx="3.77" ry="3.65"/><ellipse class="cls-4" cx="27.41" cy="9.54" rx="3.77" ry="3.65"/><ellipse class="cls-5" cx="52.7" cy="60.95" rx="21.92" ry="21.27" transform="translate(-1.08 0.95) rotate(-1.02)"/><path class="cls-5" d="M42.15,58.26a4.94,4.94,0,0,1,.22-7h0a4.93,4.93,0,0,1,7,.22"/><path class="cls-6" d="M66.68,87.59H94.45a3.31,3.31,0,0,1,3.31,3.31v0a3.31,3.31,0,0,1-3.31,3.31H66.68a0,0,0,0,1,0,0V87.59A0,0,0,0,1,66.68,87.59Z" transform="translate(86.17 -31.61) rotate(43.98)"/><path class="cls-6" d="M30.8,25.66h1V29a1.71,1.71,0,0,1-.52,1.25,1.9,1.9,0,0,1-1.43.52v-1a1,1,0,0,0,.7-.21A.7.7,0,0,0,30.8,29Z"/><path class="cls-6" d="M33.84,29.2a1.71,1.71,0,0,1-1.25-.52,1.76,1.76,0,0,1,0-2.5,1.77,1.77,0,1,1,1.25,3Zm.51-1.26a.67.67,0,0,0,.22-.51.73.73,0,0,0-.73-.73.73.73,0,0,0-.52.21.72.72,0,0,0-.21.52.69.69,0,0,0,.21.51.7.7,0,0,0,.52.22A.67.67,0,0,0,34.35,27.94Z"/><path class="cls-6" d="M36.88,25.78a1.39,1.39,0,0,1,.73-.12,1.73,1.73,0,0,1,1.25.52,1.79,1.79,0,0,1,0,2.5,1.76,1.76,0,0,1-2.5,0,1.69,1.69,0,0,1-.52-1.25V24.76h1Zm1.24,2.16a.7.7,0,0,0,.22-.51.73.73,0,0,0-.22-.52.69.69,0,0,0-.51-.21.72.72,0,0,0-.73.73.73.73,0,0,0,.73.73A.67.67,0,0,0,38.12,27.94Z"/></g></g></svg>