<svg xmlns="http://www.w3.org/2000/svg" viewBox="0 0 106.78 111.02"><defs><style>.cls-1,.cls-2{fill:none;stroke-miterlimit:10;}.cls-1{stroke:#142644;stroke-width:4.6px;}.cls-2{stroke:#e3ff66;stroke-width:2.9px;}.cls-3{fill:#e3ff66;}</style></defs><g id="Layer_2" data-name="Layer 2"><g id="Layer_1-2" data-name="Layer 1"><path class="cls-1" d="M2.3,104.58V7.85C2.3,4.78,4.4,2.3,7,2.3H48.3c2.6,0,4.7,2.48,4.7,5.55v94.78c0,2.69-1.85,4.87-4.13,4.87H15.37"/><path class="cls-2" d="M21.47,103.75V93.89A6.86,6.86,0,0,1,28.34,87h0a6.86,6.86,0,0,1,6.86,6.87v9.86"/><path class="cls-1" d="M52.78,28.06c1.27-2.48,1.89-5.15,5.69-5.55H99.78c2.6,0,4.7,2.48,4.7,5.55v75.78c0,2.69-1.85,4.88-4.13,4.88H66.85"/><path class="cls-2" d="M72.12,105.2V95.33A6.88,6.88,0,0,1,79,88.46h0a6.88,6.88,0,0,1,6.87,6.87v9.87"/><path class="cls-3" d="M23.26,23.91V19.3a6.06,6.06,0,0,0-6.06-6.06h0a6.06,6.06,0,0,0-6.06,6.06v4.61Z"/><path class="cls-3" d="M45.77,24V19.34a6.06,6.06,0,0,0-6.06-6.06h0a6.06,6.06,0,0,0-6.07,6.06V24Z"/><path class="cls-3" d="M23.26,41V36.34a6.06,6.06,0,0,0-6.06-6.06h0a6.06,6.06,0,0,0-6.06,6.06V41Z"/><path class="cls-3" d="M45.71,41.11V36.5a6.06,6.06,0,0,0-6.06-6.06h0a6.06,6.06,0,0,0-6.07,6.06v4.61Z"/><path class="cls-3" d="M23.38,59V54.39a6.06,6.06,0,0,0-6.06-6.06h0a6.06,6.06,0,0,0-6.06,6.06V59Z"/><path class="cls-3" d="M45.65,59.16V54.55a6.06,6.06,0,0,0-6.06-6.06h0a6.06,6.06,0,0,0-6.07,6.06v4.61Z"/><path class="cls-3" d="M23.23,76V71.4a6.07,6.07,0,0,0-6.07-6.07h0A6.07,6.07,0,0,0,11.1,71.4V76Z"/><path class="cls-3" d="M45.79,75.87V71.25a6.06,6.06,0,0,0-6.06-6.06h0a6.06,6.06,0,0,0-6.06,6.06v4.62Z"/><path class="cls-3" d="M74.32,42.8V38.18a6.07,6.07,0,0,0-6.06-6.06h0a6.07,6.07,0,0,0-6.07,6.06V42.8Z"/><path class="cls-3" d="M96.88,42.66V38A6.06,6.06,0,0,0,90.82,32h0A6.06,6.06,0,0,0,84.76,38v4.62Z"/><path class="cls-3" d="M74.14,59.82V55.21a6.06,6.06,0,0,0-6.06-6.07h0A6.06,6.06,0,0,0,62,55.21v4.61Z"/><path class="cls-3" d="M96.71,59.68V55.06A6.06,6.06,0,0,0,90.65,49h0a6.06,6.06,0,0,0-6.06,6.06v4.62Z"/><path class="cls-3" d="M74.14,59.82V55.21a6.06,6.06,0,0,0-6.06-6.07h0A6.06,6.06,0,0,0,62,55.21v4.61Z"/><path class="cls-3" d="M96.71,59.68V55.06A6.06,6.06,0,0,0,90.65,49h0a6.06,6.06,0,0,0-6.06,6.06v4.62Z"/><path class="cls-3" d="M74.06,77.5V72.89A6.06,6.06,0,0,0,68,66.82h0a6.06,6.06,0,0,0-6.06,6.07V77.5Z"/><path class="cls-3" d="M96.63,77.36V72.75a6.06,6.06,0,0,0-6.06-6.07h0a6.06,6.06,0,0,0-6.06,6.07v4.61Z"/></g></g></svg>