<svg xmlns="http://www.w3.org/2000/svg" viewBox="0 0 11.26 6.49"><defs><style>.cls-1{fill:#132644;}</style></defs><g id="Layer_2" data-name="Layer 2"><g id="Layer_1-2" data-name="Layer 1"><path class="cls-1" d="M5.22,5.22a2.91,2.91,0,0,1-2.16.9,3,3,0,0,1-2.17-.9A3,3,0,0,1,0,3.05,3,3,0,0,1,.89.89,3,3,0,0,1,3.06,0,2.94,2.94,0,0,1,5.22.89l.22.22L4.18,2.38,4,2.16a1.24,1.24,0,0,0-.89-.37,1.22,1.22,0,0,0-.89.37,1.21,1.21,0,0,0-.38.89,1.23,1.23,0,0,0,.38.9,1.19,1.19,0,0,0,.89.37A1.2,1.2,0,0,0,4,4l.23-.22L5.44,5Z"/><path class="cls-1" d="M4.76,0h2.1L8,2.36,9.19,0h2.07L8,6.49Z"/></g></g></svg>