<svg xmlns="http://www.w3.org/2000/svg" viewBox="0 0 112.71 69.94"><defs><style>.cls-1{fill:#e3ff66;}.cls-2,.cls-4{fill:none;stroke-miterlimit:10;}.cls-2{stroke:#142644;stroke-width:5px;}.cls-3{fill:#132644;}.cls-4{stroke:#e3ff66;stroke-width:2.9px;}</style></defs><g id="Layer_2" data-name="Layer 2"><g id="Layer_1-2" data-name="Layer 1"><path class="cls-1" d="M112.6,60a11,11,0,0,1,0-1.72v-11c-.51.2-.85.33-1.18.48-6,2.63-12,5.25-17.93,7.92a4.77,4.77,0,0,1-4.2,0c-2.36-1.1-4.76-2.11-7.14-3.16l-6.81-3a3.67,3.67,0,0,0-.08.49c0,4.68,0,9.36,0,14a.78.78,0,0,0,.72.9c1.12.26,2.22.6,3.35.81a65.13,65.13,0,0,0,22.15.37,27.27,27.27,0,0,0,9.2-2.75C112,62.63,112.86,61.71,112.6,60Z"/><path class="cls-1" d="M70.19,47.34c2,.59,2,.59,2,2.4V63.17a2.37,2.37,0,0,1-2-2.45c0-4.16,0-8.33,0-12.5C70.15,48,70.17,47.68,70.19,47.34Z"/><path class="cls-2" d="M2.5,62.05V19.7a6.58,6.58,0,0,1,6.58-6.58H67a6.58,6.58,0,0,1,6.57,6.58v40a5.77,5.77,0,0,1-5.77,5.78H20.82"/><path class="cls-3" d="M44.2,31v3.36a4.42,4.42,0,0,0,4.42,4.42h0A4.41,4.41,0,0,0,53,34.32V31Z"/><path class="cls-3" d="M23,31v3.37a4.41,4.41,0,0,0,4.42,4.41h0a4.41,4.41,0,0,0,4.42-4.41V31Z"/><path class="cls-4" d="M32.91,6.55A5.1,5.1,0,0,1,38,1.45h0a5.1,5.1,0,0,1,5.1,5.1"/><path class="cls-3" d="M111,40.51q-9.34-4.09-18.68-8.25a3.53,3.53,0,0,0-3.24,0c-.8.41-1.64.74-2.5,1.11L83.62,34.7l-.19.08c-2.27,1-4.52,2-6.78,3-.72.32-1,.78-.83,1.35s.83,1,1.65.61c1.81-.78,3.61-1.59,5.41-2.38,2.39-1,4.78-2.09,7.15-3.16a1.42,1.42,0,0,1,1.27,0q9.33,4.14,18.68,8.25c.21.09.41.21.76.39-.32.19-.51.34-.72.44-2.17,1-4.33,1.92-6.51,2.85a1.41,1.41,0,0,1-1,0c-2.4-1.07-4.78-2.19-7.17-3.27-.41-.18-.63-.36-.6-.87a2.36,2.36,0,0,0-1.14-2,5.41,5.41,0,0,0-5.85,0,2.38,2.38,0,0,0,0,4.15,5.28,5.28,0,0,0,5.12.37,1.11,1.11,0,0,1,.71-.07c2.2,1,4.39,2,6.68,3.06a3.77,3.77,0,0,1-.44.28C97,49,94.11,50.26,91.2,51.51a1.46,1.46,0,0,1-1,0C83.86,48.76,77.59,46,71.32,43.21c-.18-.08-.36-.19-.73-.4.52-.25.87-.43,1.23-.59.52-.24,1-.45,1.54-.7a1,1,0,0,0,.55-1.35,1,1,0,0,0-1.4-.58,28.22,28.22,0,0,0-2.63,1.19,2.16,2.16,0,0,0-1.21,2.08A2.23,2.23,0,0,0,70,44.94c1.08.51,2.17,1,3.28,1.46a.8.8,0,0,1,.58.89c0,3.2,0,6.4,0,9.59A3.6,3.6,0,0,0,75.39,60a14.44,14.44,0,0,0,6,2.38A45.49,45.49,0,0,0,101.63,62l.39-.11a5.26,5.26,0,0,1-.59,1c-1,1.33-1.85,2.7-2.84,4l-.06.09a8.8,8.8,0,0,0,2,.83c.45-.5.94-1,1.4-1.53,0,.62.05,1.17.05,1.81a9.19,9.19,0,0,0,2,0c0-.61,0-1.17,0-1.88.46.56,1,1.15,1.41,1.61a9.32,9.32,0,0,0,2-.83c-1-1.37-2.07-2.74-3.09-4.11a1.34,1.34,0,0,1,.48-2.16c.25-.13.49-.28.73-.43a3.92,3.92,0,0,0,2-3.73c-.11-2.14,0-4.28,0-6.42l0-2.77c0-.56.11-.82.51-1,1-.41,2-.87,3-1.3a2.42,2.42,0,0,0,0-4.64ZM88.76,42a2.83,2.83,0,0,1,3.9,0A2.75,2.75,0,0,1,88.76,42Zm12.63,17.91c-.78.18-1.55.41-2.33.57a45.27,45.27,0,0,1-15.36.25,18.63,18.63,0,0,1-6.37-1.91A2.38,2.38,0,0,1,76,56.49c0-.41,0-.8,0-1.2V47.63c.35.14.59.23.82.34Q83,50.7,89.23,53.45a3.24,3.24,0,0,0,2.91,0c1.64-.76,3.3-1.47,5-2.19l4.72-2.09c0,.16.05.25.05.34,0,3.24,0,6.49,0,9.73A.55.55,0,0,1,101.39,59.86Zm4-2.9A1.64,1.64,0,0,1,104,58.65v-9.3c0-1.26,0-1.26,1.36-1.67,0,.24,0,.42,0,.61Z"/><path class="cls-3" d="M104,68.13v.78a1,1,0,0,1-1,1h0a1,1,0,0,1-1-1v-.78"/><path class="cls-3" d="M100.56,67.77l-.47.66a1,1,0,0,1-1.46.26h0a1,1,0,0,1-.23-1.46l.46-.66"/><path class="cls-3" d="M105.19,67.64l.51.62a1.06,1.06,0,0,0,1.48.16h0a1.06,1.06,0,0,0,.13-1.48l-.51-.62"/></g></g></svg>