<svg xmlns="http://www.w3.org/2000/svg" viewBox="0 0 64.02 73.79"><defs><style>.cls-1,.cls-2,.cls-4{fill:none;stroke-miterlimit:10;}.cls-1{stroke:#132644;stroke-width:5px;}.cls-2{stroke:#142644;}.cls-2,.cls-4{stroke-width:4.1px;}.cls-3{fill:#e3ff66;}.cls-4{stroke:#e3ff66;}</style></defs><g id="Layer_2" data-name="Layer 2"><g id="Layer_1-2" data-name="Layer 1"><line class="cls-1" x1="1.68" y1="25.42" x2="62.67" y2="25.42"/><path class="cls-2" d="M2.05,68.81V18.08A5.55,5.55,0,0,1,7.6,12.53H56.42A5.55,5.55,0,0,1,62,18.08V66.86a4.87,4.87,0,0,1-4.87,4.88H17.5"/><path class="cls-3" d="M23.93,38V35.3a3.6,3.6,0,0,0-3.6-3.6h0a3.61,3.61,0,0,0-3.6,3.61v2.74Z"/><path class="cls-3" d="M35.78,38V35.3a3.61,3.61,0,0,0-3.61-3.6h0a3.61,3.61,0,0,0-3.6,3.61v2.74Z"/><path class="cls-3" d="M47.62,38V35.3A3.6,3.6,0,0,0,44,31.7h0a3.6,3.6,0,0,0-3.6,3.61v2.74Z"/><path class="cls-3" d="M23.93,49.4V46.66a3.6,3.6,0,0,0-3.6-3.6h0a3.61,3.61,0,0,0-3.6,3.61v2.74Z"/><path class="cls-3" d="M35.78,49.4V46.66a3.61,3.61,0,0,0-3.61-3.6h0a3.61,3.61,0,0,0-3.6,3.61v2.74Z"/><path class="cls-3" d="M47.62,49.4V46.66a3.6,3.6,0,0,0-3.6-3.6h0a3.6,3.6,0,0,0-3.6,3.61v2.74Z"/><path class="cls-3" d="M23.93,61.42V58.68a3.6,3.6,0,0,0-3.6-3.6h0a3.6,3.6,0,0,0-3.6,3.6v2.75Z"/><path class="cls-3" d="M35.78,61.42V58.68a3.61,3.61,0,0,0-3.61-3.6h0a3.6,3.6,0,0,0-3.6,3.6v2.75Z"/><path class="cls-3" d="M47.62,61.42V58.68a3.6,3.6,0,0,0-3.6-3.6h0a3.59,3.59,0,0,0-3.6,3.6v2.75Z"/><path class="cls-4" d="M25,9.26a7.21,7.21,0,0,1,7.22-7.21h0a7.21,7.21,0,0,1,7.21,7.21"/></g></g></svg>